<svg width="156" height="186" viewBox="0 0 156 186" fill="none" xmlns="http://www.w3.org/2000/svg">
<path d="M5.23154 192.982C0.644838 186.581 -0.301812 177.956 2.01759 167.76C4.33683 157.564 9.91063 145.857 18.2729 133.375C34.9954 108.413 62.8068 80.4442 97.7512 55.4037C132.696 30.3632 168.12 13.0185 197.132 5.2075C211.64 1.30148 224.518 -0.213175 234.918 0.868084C245.319 1.94942 253.181 5.61812 257.768 12.0189C262.355 18.4198 263.301 27.0441 260.982 37.2405C258.663 47.4361 253.089 59.1434 244.726 71.6257C228.004 96.5872 200.193 124.556 165.248 149.597C130.304 174.637 94.8791 191.982 65.867 199.793C51.359 203.699 38.4814 205.214 28.0813 204.132C17.6805 203.051 9.81825 199.382 5.23154 192.982Z" stroke="url(#paint0_linear_5702_637)"/>
<defs>
<linearGradient id="paint0_linear_5702_637" x1="258.175" y1="11.7278" x2="4.8254" y2="193.273" gradientUnits="userSpaceOnUse">
<stop stop-color="white"/>
<stop offset="1" stop-color="white" stop-opacity="0"/>
</linearGradient>
</defs>
</svg>
