<svg width="32" height="32" viewBox="0 0 32 32" fill="none" xmlns="http://www.w3.org/2000/svg">
<path d="M30.5025 28.4254H29.9902V26.8884C29.9902 26.6055 29.7607 26.3761 29.4778 26.3761V24.8392C29.4778 24.5562 29.2484 24.3268 28.9654 24.3268V12.031C29.2484 12.031 29.4778 11.8017 29.4778 11.5187V9.98179C29.7607 9.98179 29.9902 9.75237 29.9902 9.46948V7.42016C29.9902 7.13727 29.7607 6.90785 29.4778 6.90785H28.9654V4.85852C28.9654 4.62872 28.8125 4.42714 28.5913 4.36513L15.7832 0.778883C15.6928 0.753637 15.5974 0.753637 15.5069 0.778883L2.69889 4.36513C2.47773 4.42714 2.32471 4.62872 2.32471 4.85852V6.90785H1.81241C1.52942 6.90785 1.3001 7.13727 1.3001 7.42016V9.46948C1.3001 9.75237 1.52942 9.98179 1.81241 9.98179V11.5187C1.81241 11.8017 2.04173 12.031 2.32471 12.031V24.3268C2.04173 24.3268 1.81241 24.5562 1.81241 24.8392V26.3761C1.52942 26.3761 1.3001 26.6055 1.3001 26.8884V28.4254H0.787698C0.50481 28.4254 0.275391 28.6547 0.275391 28.9377V30.987C0.275391 31.2699 0.50481 31.4994 0.787698 31.4994H30.5025C30.7853 31.4994 31.0148 31.2699 31.0148 30.987V28.9377C31.0148 28.6547 30.7853 28.4254 30.5025 28.4254ZM18.719 26.3761V24.7665C21.1901 23.6139 22.907 21.1061 22.907 18.2043C22.907 15.3026 21.1901 12.7949 18.719 11.6422V9.98179H23.33V11.5187C23.33 11.8017 23.5593 12.031 23.8423 12.031V24.3268C23.5593 24.3268 23.33 24.5562 23.33 24.8392V26.3761H18.719ZM7.96028 26.3761V24.8392C7.96028 24.5562 7.73086 24.3268 7.44798 24.3268V12.031C7.73086 12.031 7.96028 11.8017 7.96028 11.5187V9.98179H12.5711V11.6661C10.1274 12.8292 8.434 15.3226 8.434 18.2044C8.434 21.0863 10.1274 23.5796 12.5711 24.7427V26.3761H7.96028ZM6.42327 12.031V24.3268H5.39865V12.031H6.42327ZM15.6705 24.4162C12.2453 24.4162 9.45862 21.6296 9.45862 18.2043C9.45862 14.7791 12.2453 11.9924 15.6705 11.9924C19.0958 11.9924 21.8824 14.7791 21.8824 18.2043C21.8824 21.6296 19.0959 24.4162 15.6705 24.4162ZM17.6944 11.2563C17.0518 11.0688 16.3728 10.9679 15.6705 10.9679C14.9497 10.9679 14.2533 11.0743 13.5958 11.2714V9.98179H17.6944V11.2563ZM13.5958 25.1374C14.2534 25.3345 14.9497 25.4409 15.6705 25.4409C16.3728 25.4409 17.0518 25.34 17.6944 25.1526V26.3761H13.5958V25.1374ZM24.8669 24.3268V12.031H25.8915V24.3268H24.8669ZM24.3546 25.3515H28.4531V26.3761H24.3546V25.3515ZM27.9408 24.3268H26.9162V12.031H27.9408V24.3268ZM28.4531 11.0064H24.3546V9.98179H28.4531V11.0064ZM3.34933 5.2471L15.6451 1.80426L27.9408 5.2471V6.90785H26.9162V6.39554C26.9162 6.16679 26.7646 5.96569 26.5445 5.90291L15.7858 2.82897C15.6938 2.80267 15.5963 2.80267 15.5044 2.82897L4.74553 5.90291C4.52561 5.96569 4.37404 6.16679 4.37404 6.39554V6.90785H3.34933V5.2471ZM25.8915 6.90785H5.39865V6.78191L15.6451 3.85436L25.8915 6.78191V6.90785ZM2.32471 7.93246H28.9654V8.95717H2.32471V7.93246ZM6.93557 9.98179V11.0064H2.83702V9.98179H6.93557ZM3.34933 12.031H4.37404V24.3268H3.34933V12.031ZM2.83702 25.3515H6.93557V26.3761H2.83702V25.3515ZM2.32471 27.4007H28.9654V28.4254H2.32471V27.4007ZM29.9902 30.4746H1.3001V29.45H29.9902V30.4746Z" fill="black"/>
</svg>
